<svg viewBox="0 0 23 24" xmlns="http://www.w3.org/2000/svg"><path d="m850.37 495.39c1.5547 0 3.0195-.29883 4.3945-.89648 1.375-.59766 2.5859-1.4199 3.6328-2.4668s1.8672-2.2559 2.4609-3.627c.59375-1.3711.89062-2.8379.89062-4.4004 0-1.5547-.29883-3.0195-.89648-4.3945-.59766-1.375-1.4199-2.5879-2.4668-3.6387s-2.2578-1.8711-3.6328-2.4609-2.8398-.88476-4.3945-.88476-3.0176.29492-4.3887.88476-2.582 1.4102-3.6328 2.4609c-1.0508 1.0508-1.873 2.2637-2.4668 3.6387s-.89062 2.8398-.89062 4.3945c0 1.5625.29883 3.0293.89648 4.4004.59766 1.3711 1.4199 2.5801 2.4668 3.627s2.2559 1.8691 3.627 2.4668c1.3711.59766 2.8379.89648 4.4004.89648zm0-2.0859c-1.2891 0-2.4961-.24023-3.6211-.7207s-2.1133-1.1465-2.9648-1.998c-.85156-.85156-1.5156-1.8398-1.9922-2.9648-.47656-1.125-.71484-2.332-.71484-3.6211s.23828-2.4961.71484-3.6211 1.1406-2.1133 1.9922-2.9648c.85156-.85156 1.8379-1.5156 2.959-1.9922 1.1211-.47656 2.3262-.71484 3.6152-.71484s2.4961.23828 3.6211.71484 2.1133 1.1406 2.9648 1.9922c.85156.85156 1.5176 1.8398 1.998 2.9648.48047 1.125.7207 2.332.7207 3.6211.007813 1.2891-.22852 2.4961-.70898 3.6211s-1.1445 2.1133-1.9922 2.9648c-.84766.85156-1.8359 1.5176-2.9648 1.998s-2.3379.7207-3.627.7207zm.97266-4.6172c.25 0 .46094-.085938.63281-.25781l3.75-3.7266c.22656-.22656.33984-.46875.33984-.72656 0-.24219-.11328-.48047-.33984-.71484l-3.75-3.7383c-.16406-.15625-.375-.23438-.63281-.23438-.24219 0-.44336.082032-.60352.24609-.16016.16406-.24023.36328-.24023.59766 0 .25781.089844.47266.26953.64453l1.3711 1.3359 1.2891 1.0547-2.3086-.10547h-5.5898c-.26562 0-.48242.08789-.65039.26367s-.25195.39258-.25195.65039c0 .26562.083985.48438.25195.65625.16797.17188.38477.25781.65039.25781h5.5898l2.3086-.09375-1.2891 1.0664-1.3711 1.3242c-.17969.16406-.26953.375-.26953.63281 0 .24219.080078.44727.24023.61524.16016.16797.36133.25195.60352.25195z" transform="translate(-839 -472)"/></svg>