<svg viewBox="0 0 23 24" xmlns="http://www.w3.org/2000/svg"><path d="m850.37 495.39c1.5547 0 3.0195-.29883 4.3945-.89648 1.375-.59766 2.5859-1.4199 3.6328-2.4668s1.8672-2.2559 2.4609-3.627c.59375-1.3711.89062-2.8379.89062-4.4004 0-1.5547-.29883-3.0195-.89648-4.3945-.59766-1.375-1.4199-2.5879-2.4668-3.6387s-2.2578-1.8711-3.6328-2.4609-2.8398-.88476-4.3945-.88476-3.0176.29492-4.3887.88476-2.582 1.4102-3.6328 2.4609c-1.0508 1.0508-1.873 2.2637-2.4668 3.6387s-.89062 2.8398-.89062 4.3945c0 1.5625.29883 3.0293.89648 4.4004.59766 1.3711 1.4199 2.5801 2.4668 3.627s2.2559 1.8691 3.627 2.4668c1.3711.59766 2.8379.89648 4.4004.89648zm1.0195-6.5391c-.25781 0-.4707-.085937-.63867-.25781s-.25195-.38672-.25195-.64453.09375-.47656.28125-.65625l1.4062-1.3594 1.3477-1.1016-2.4023.10547h-5.7656c-.27344 0-.49805-.091797-.67383-.27539-.17578-.18359-.26367-.41211-.26367-.68555s.089843-.49805.26953-.67383c.17969-.17578.40234-.26367.66797-.26367h5.7656l2.3906.09375-1.3359-1.0898-1.4062-1.3711c-.1875-.19531-.28125-.41406-.28125-.65625 0-.25781.083984-.47266.25195-.64453.16797-.17188.38086-.25781.63867-.25781.26562 0 .48438.085937.65625.25781l3.8789 3.8672c.24219.23438.36328.48047.36328.73828 0 .27344-.12109.52734-.36328.76172l-3.8789 3.8555c-.17969.17188-.39844.25781-.65625.25781z" transform="translate(-839 -472)"/></svg>