<svg viewBox="0 0 82 82" xmlns="http://www.w3.org/2000/svg" xmlns:xlink="http://www.w3.org/1999/xlink"><defs><circle id="a" cx="40.18" cy="40.18" r="40.18"/><mask id="b" fill="#fff"><use fill="#fff" fill-rule="evenodd" xlink:href="#a"/></mask></defs><g fill="none" fill-rule="evenodd" transform="translate(1 1)"><circle cx="40.18" cy="40.18" fill="#f7f7fa" r="40.18" stroke="#131214" stroke-width=".6"/><use fill="#f7f7fa" fill-rule="nonzero" stroke="#131214" stroke-width=".6" xlink:href="#a"/><path d="m26.959 21.876h15.233l12.95 5.424 6.835 7.982-9.17 9.43v23.758l-11.756 9.106-6.251-3.303v-20.049l-12.112-12.29.238-13.896z" fill="#e7e7e7" mask="url(#b)"/><g mask="url(#b)"><g transform="translate(13.586 5.1117)"><path d="m20.693 75.104c1.3586-4.755-2.5473-11.769-1.4944-13.79 1.0529-2.0209 2.7257-10.801 2.7257-10.801-3.9122 1.0048-7.3381 3.371-9.6629 6.674-2.1313 3.1502-9.8412 16.745-10.495 18.12" fill="#ff4a42" fill-rule="nonzero"/><path d="m20.693 75.104c1.3586-4.755-2.5473-11.769-1.4944-13.79 1.0529-2.0209 2.7257-10.801 2.7257-10.801-3.9122 1.0048-7.3381 3.371-9.6629 6.674-2.1313 3.1502-9.8412 16.745-10.495 18.12" fill="#a0a0ff" fill-rule="nonzero"/><path d="m60.875 69.889s6.3853-12.667 0-14.696c-6.9965-5.6638-21.311-7.5085-21.311-7.5085s-9.0382 19.371-13.428 22.147c-1.6982 1.1038-5.0947-16.337-4.2116-19.317-1.7652 1.8586-6.3259 4.772-7.0222 11.064-.84911 7.9053 1.7361 10.076 1.5578 17.455" fill="#a0a0ff" fill-rule="nonzero"/><path d="m55.787 56.296c-4.8315 3.5238-6.5297 8.8478-7.175 11.888-.067644.3242-.14282.64895-.22101.97714" fill="none" stroke="#f7f7fa" stroke-width=".6"/><path d="m30.05.94252c-.92553-.48399-.66231.66231-.484 1.7577.17831 1.0954.484 1.2312.484 1.2312-.73586.041642-1.4741-.0039613-2.1992-.13586-8.2449-1.1123-11.446 5.1966-13.391 5.706-5.6211 1.4944-8.1685 4.2456-8.7798 6.7929-.70476 2.9889.61136 5.1626 1.0104 7.9477.56891 4.0418-4.0248 4.8484-4.9673 7.5062-1.8426 5.2221-1.3586 8.4317.78968 12.907 2.369 4.9249 10.189 6.7929 9.4846 6.241-4.1691-3.6002-4.2031-6.7929-3.4644-5.4513 2.3266 4.305 10.843 5.4004 11.769 5.273s2.2332-.26323 2.2332-.26323.26323-1.6218-.16982-1.6982c-2.8955-.2887-4.2456-3.3455-6.2834-5.4004-7.4637-7.4213-3.6002-19.012-4.8739-20.718-.12737 0-2.4709-2.1143-1.8001-1.3671 3.0738 3.3965 9.3997 3.6002 9.8837 3.2946.48399-.30568 1.8341-.75571.65382-1.3161-2.4115-1.1378-5.5447-6.7929-4.9588-6.1476 6.0117 6.8523 15.148 7.7694 17.475 7.4637 2.3266-.30568 1.885-1.0954 2.5473-1.2312.66231-.13586 1.3586 4.6616 1.5794 4.2456.22077-.41607 2.1058-2.7681 3.7786-2.42 1.6728.34814 1.4435 4.6107.9595 5.8419-.79817 2.0464-5.0098 3.5408-5.0437 4.6107-.30568 8.7374 3.2436 12.694 3.2436 12.694.21699-.78855.54279-1.543.96799-2.2417.74722-1.2737 5.1541-3.1162 5.0947-3.8635-.23526-2.0422-.80919-4.0309-1.6982-5.8844.31417.84911 3.9144 4.2456 4.1776 4.0842.99346-.56891 7.8543-9.3403 5.9438-9.3997-2.9889-.084911-6.3684-4.1691-5.5787-3.9908.78968.17831 4.4324-.050947 5.5362-1.1463 1.1038-1.0954-4.4663-.84911-6.9373-1.8426-3.7786-1.4944-4.1776-7.4213-4.5258-11.59-.27172-3.2861-9.4846-7.2429-9.128-8.0326.35663-.78968.52645-2.1992-.484-2.3266-1.0104-.12737-1.4944 1.6218-1.4095 1.0529-.071327-.92575-.61329-1.7499-1.435-2.1822z" fill="#131214" fill-rule="nonzero"/><g stroke-width=".6"><path d="m22.451 49.113c.28386 1.4449.3724 2.9214.26323 4.3899" fill="none" stroke="#131214"/><path d="m34.041 37.514s-4.2456 8.7119-7.9053 10.368c-2.5473 1.1378-4.8739 1.5369-7.0222-.70476-2.1483-2.2417-6.674-8.2109-7.3788-11.59-.70476-3.3795-.26323-11.633-.48399-12.643" fill="none" stroke="#131214"/><path d="m36.368 27.817c.74722-1.1038 4.2456-5.4004 5.0947-.35663s-4.305 7.158-4.7805 7.3788-.39908 1.5794-.39908 1.5794-.084911 6.7929 3.3965 12.168" fill="none" stroke="#131214"/><path d="m9.1025 20.922c1.9434 2.0457 4.5362 3.3541 7.3363 3.7021 2.7172.26323 4.8399-.60287 3.2861-1.3586-1.8001-.84911-5.0013-5.706-4.9164-6.4533.084911-.74722 4.4833 7.3788 16.379 7.7269 2.9549.084911 3.8635-.92553 3.4729-1.7577-.39059-.83213 2.0124 2.9464 1.7492 4.8315" fill="none" stroke="#131214"/><path d="m25.366 37.306s-3.773 2.2941-8.8252 1.9053c0 0 1.7164 4.1533 4.0683 4.159 3.5653 0 4.5687-4.3125 4.7569-6.0643z" fill="#f7f7fa" fill-rule="nonzero" stroke="#131214" stroke-linejoin="round"/><path d="m18.423 30.17s.28021 1.9445-.44154 2.4624c-.72175.51796-.34814 1.9275.84911 2.369" fill="none" stroke="#131214" stroke-linecap="round" stroke-linejoin="round"/><path d="m11.719 72.464c.5653-1.7526 1.2613-3.3867 2.011-4.7221 1.0913-1.8072 2.0314-3.7015 2.8106-5.6636" fill="none" stroke="#f7f7fa"/></g><circle cx="22.884" cy="28.87" fill="#131214" fill-rule="nonzero" r="1.2907"/><circle cx="14.664" cy="29.575" fill="#131214" fill-rule="nonzero" r="1.2907"/><path d="m16.371 23.444-7.0307 2.106.3905 1.698 7.0312-2.284z" fill="#131214" fill-rule="nonzero"/><path d="m21.559 22.926-.331 1.698 7.073.705.306-1.758z" fill="#131214" fill-rule="nonzero"/></g></g></g></svg>