<svg viewBox="0 0 82 82" xmlns="http://www.w3.org/2000/svg" xmlns:xlink="http://www.w3.org/1999/xlink"><defs><circle id="a" cx="40.18" cy="40.18" r="40.18"/><mask id="b" fill="#fff"><use fill="#fff" fill-rule="evenodd" xlink:href="#a"/></mask></defs><g fill="none" fill-rule="evenodd" transform="translate(1 1)"><circle cx="40.18" cy="40.18" fill="#f7f7fa" r="40.18" stroke="#131214" stroke-width=".6"/><use fill="#f7f7fa" fill-rule="nonzero" stroke="#131214" stroke-width=".6" xlink:href="#a"/><g mask="url(#b)"><g transform="translate(5.8001 10.355)"><path d="m40.336 31.294 4.6241 8.8137 10.849-3.1158c4.1177-.80092 7.9331-.80092 11.446 0 2.5854.86024 4.42 2.1483 5.504 3.8642-1.2984 4.0806-2.7948 7.3865-4.4892 9.9176-10.626 16.608-27.227 21.826-49.801 15.656-4.9711-2.2559-8.983-4.9811-12.036-8.1757-3.0526-3.1946-5.0192-5.688-5.8998-7.4802l4.1444-3.7967 5.3016-3.1287 7.1216 1.4014 6.0549-.56353 2.6393-1.5812v-5.829l-2.6393-4.5353h-3.9282l-2.8191-2.0859v-7.8521l.95624-3.2629-1.2347-2.67 3.4674-2.7111 3.5584-7.5823 5.0418-3.0517 12.138 16.015v11.754z" fill="#e7e7e7" fill-rule="evenodd"/><path d="m.09981 50.773c1.2656-1.3473 2.7508-2.6503 4.5782-3.7967l3.6342-2.2756c1.135-.71331 2.5114-.93402 3.8125-.61136l2.9634.71326c2.8021.69627 7.3873 0 7.3873 0l3.32-1.6982c.22529-1.7622.18522-3.5482-.11888-5.2985-.35731-1.6734-1.0569-3.2547-2.0549-4.6447-.73024-.97648-2.9974.16982-5.3749-.92553s-2.0209-3.4729-1.7916-7.4297c.022595-1.925.35223-3.834.97648-5.6551 0 0-2.1483-1.6558-.97648-2.5473 1.3246-1.0359 1.2482-1.1633 2.5473-2.1483 1.8256-1.3756 2.2332-5.1456 3.7531-7.3194 1.5199-2.1737 4.7465-2.9974 4.7465-2.9974s4.6786 5.4258 5.5787 7.4807c.90006 2.0549-1.0359 5.7655-1.0359 5.7655l1.6048.9595s1.6982-2.8106 3.2012-2.4879c1.5029.32266 2.1143 2.0124 2.2417 5.0947.12737 3.0823-3.6852 3.838-5.2645 4.2456-.90485.24353-1.8698-.042012-2.4964-.73873" fill="none" stroke="#131214" stroke-linejoin="round" stroke-width=".6"/><path d="m38.634 22.802s1.6982 8.3043 2.6068 10.325c.90855 2.0209 3.7191 6.9797 3.7191 6.9797l6.0202-2.0888c6.0287-2.0888 11.251-.96799 15.386-.96799 2.4711 0 4.9907 1.9527 6.6184 3.5243" fill="none" stroke="#131214" stroke-linejoin="round" stroke-width=".6"/><path d="m24.556 8.3845-.934 1.435 5.094 4.0245.926-1.494z" fill="#131214" fill-rule="nonzero" transform="matrix(.98162718 -.190809 .190809 .98162718 -1.631346 5.285821)"/><path d="m24.929 16.044c-1.0107-.6627-2.3403-.56524-3.2436.23775" fill="none" stroke="#131214" stroke-linecap="round" stroke-width=".6"/><path d="m27.154 4.1729c.42456.28021 4.4324 4.2456 5.5957 6.4108s-.69627 6.7929-.69627 6.7929l1.6048.9595s1.6473-3.3031 3.2012-2.4879c3.1502 1.6388 2.1228 7.1071 2.1228 7.1071.12906 2.5375.57987 5.0483 1.3416 7.4722 1.1633 3.2436 6.0966-3.3965 9.111-7.1665 3.6512-4.5597.29719-12.499-2.1313-16.074-10.079-13.017-20.574-3.2861-20.149-3.0144z" fill="#131214" fill-rule="nonzero"/><circle cx="23.792" cy="14.159" fill="#131214" fill-rule="nonzero" r="1.3161"/><path d="m28.08 31.132s2.9634-1.6982 3.8889-3.3965" fill="none" stroke="#131214" stroke-width=".6"/><g fill-rule="nonzero"><path d="m15.793 75.278s-.97648-29.481-.70476-30.475c.27172-.99346 5.0947-.90855 7.3873-.36512 2.0888.50947 10.69 15.403 10.69 15.403l12.151-20.481s6.0627-1.9869 6.1136-1.8681l9.0162 22.796c.32667.73245-11.98 8.763-22.703 9.3646" fill="#6363e3"/><path d="m16.455 24.509c-.14435 1.6982 0 3.0993 1.1293 3.2012s4.3135-3.1927 4.4578-4.8909c.14435-1.6982-3.1247-1.1633-4.288-1.2652-1.1633-.10189-1.1548 1.2567-1.2991 2.9549z" fill="#f7f7fa" stroke="#131214" stroke-linejoin="round" stroke-width=".6"/></g></g></g></g></svg>