<svg viewBox="0 0 82 82" xmlns="http://www.w3.org/2000/svg"><g fill="none" fill-rule="evenodd" transform="translate(1 1)"><circle cx="40.251" cy="40.225" fill="#f7f7fa" r="40.18" stroke="#131214" stroke-width=".5"/><path d="m24.976 55.11 2.208-3.145 10.248 2.992 14.952-2.992v.94l-19.418 9.151z" fill="#e7e7e7"/><path d="m52.292 52.69c-.93403-3.5578-.18681-11.786-.18681-11.786s4.2965-1.4435 4.4918-5.706c.093402-2.0633-.65382-3.0908-1.8765-2.9974-1.5722.30142-2.7088 1.6768-2.7087 3.2776.093402 1.4944-.56042 4.0163-1.9615 4.3899-1.401.37361-3.6512-1.0274-3.2776-4.5767.37361-3.5493-.26323-6.3684-4.9588-9.6374-2.1483-1.5029-8.7034-4.9588-14.503-3.3965-4.0757 1.1208-4.6786 6.9203-4.9588 7.9562s-.74722 17.831 2.1567 21.228 5.4258 6.7335 12.533 5.5192" fill="#e7e7e7" fill-rule="nonzero" stroke="#131214" stroke-linecap="round" stroke-width=".6"/><path d="m74.46 61.102c-8.0088-3.3845-19.281-5.3467-19.281-5.3467" fill="#f7f7fa" fill-rule="nonzero" stroke="#131214" stroke-width=".6"/><path d="m5.3697 60.069c4.8313.67646 9.7267.76485 14.579.26323.87417-.71496 1.6788-1.511 2.403-2.3775 1.0359-1.1208 2.3436-2.9974 2.6238-2.9974s5.3324 4.8654 5.3324 4.8654l-3.0059 6.6995-4.8994-8.6015" stroke="#131214" stroke-width=".6"/><path d="m56.41 58.574-13.102 7.5741s-3.4559-7.0137-3.2691-7.5741" stroke="#131214" stroke-width=".6"/><path d="m24.492 55.348-2.089 2.573 4.908 8.61 2.997-6.742-5.332-4.679z" fill="#4949a4" fill-rule="nonzero" stroke="#131214" stroke-width=".6"/><path d="m39.012 20.78c-3.0685.064716-6.1293.3342-9.1619.80666 0 0 10.079 2.1822 13.178 4.6192 4.0248 3.4644 3.6512 5.6126 4.0248 7.1071.23775.93403-.56042 4.305.46701 5.239 1.0274.93403 3.3965 1.7831 3.9314.18681s.4755-4.5767 1.3246-5.5787c1.1208-1.401 3.0908-.56042 3.1842-1.7746s1.1208-4.8654.18681-6.0797-14.63-4.4578-17.135-4.5258z" fill="#131214" fill-rule="nonzero" stroke="#131214" stroke-width=".6"/><path d="m36.575 27.047-.934 1.775 4.585 3.09 1.027-1.401z" fill="#131214" fill-rule="nonzero"/><path d="m36.575 27.047-.934 1.775 4.585 3.09 1.027-1.401z" fill="none"/><path d="m28.686 26.987-5.009 2.072.229 1.554 5.171-1.749z" fill="#00a65e" fill-rule="nonzero"/><path d="m28.686 26.987-5.009 2.072.229 1.554 5.171-1.749z" fill="#131214" fill-rule="nonzero"/><path d="m41.083 41.193c.71326 1.3756 2.0379 1.9445 3.821 2.0379" fill="none" stroke="#131214" stroke-linecap="round" stroke-width=".6"/><path d="m28.593 44.6s.37361 1.2991-1.4095 2.2417" fill="none" stroke="#131214" stroke-linecap="round" stroke-width=".6"/><g fill-rule="nonzero"><g stroke="#131214" stroke-linecap="round" stroke-width=".6" transform="translate(18.811 29.673)"><path d="m3.0738 8.2257s-2.9889-1.4944-2.6153-4.2456c.18838-1.5555 1.2937-2.845 2.8021-3.2691" fill="#e0e0e3"/><g stroke-linejoin="round"><path d="m12.244 2.146-1.698 9.17 2.709 1.588" fill="none"/><path d="m24.454 13.745c-1.5454.56891-10.274 3.7106-14.639 2.6238.11038.20379 1.0869 6.9118 8.3213 5.7994 2.3206-.21504 4.3343-1.6902 5.239-3.838.13586-.31417.44154-1.401.72175-2.4454.22077-.84911.42456-1.6048.52645-1.9869.013158-.04668-.0013368-.096782-.037386-.12923-.036049-.032444-.087396-.0416-.13244-.023614z" fill="#f7f7fa"/></g></g><circle cx="35.87" cy="33.568" fill="#131214" r="1.3756"/><circle cx="25.969" cy="33.568" fill="#131214" r="1.3756"/><path d="m40.039 58.574 3.269 7.575 13.263-7.575-3.099-6.274z" fill="#4949a4" stroke="#131214" stroke-width=".6"/><circle cx="22.394" cy="23.82" fill="#131214" r="3.2436" stroke="#131214" stroke-width=".6"/><circle cx="37.033" cy="14.429" fill="#131214" r="4.8399" stroke="#131214" stroke-width=".6"/><ellipse cx="31.458" cy="14.727" fill="#131214" rx="5.0692" ry="6.7335" stroke="#131214" stroke-width=".6" transform="matrix(.40992303 -.91212012 .91212012 .40992303 5.129848 37.383538)"/><circle cx="24.585" cy="17.707" fill="#131214" r="4.1691" stroke="#131214" stroke-width=".6"/><ellipse cx="33.807" cy="17.501" fill="#131214" rx="3.7955" ry="5.9693" stroke="#131214" stroke-width=".6" transform="matrix(.02111691 -.99977701 .99977701 .02111691 15.596003 50.930894)"/><ellipse cx="28.324" cy="20.753" fill="#131214" rx="3.5663" ry="2.3096" stroke="#131214" stroke-width=".6" transform="matrix(.71836917 -.69566208 .69566208 .71836917 -6.460164 25.548617)"/><ellipse cx="44.389" cy="15.601" fill="#131214" rx="4.5767" ry="5.5702" stroke="#131214" stroke-width=".6" transform="matrix(.40992303 -.91212012 .91212012 .40992303 11.962941 49.693891)"/><ellipse cx="43.211" cy="20.611" fill="#131214" rx="3.6682" ry="5.9523" stroke="#131214" stroke-width=".6" transform="matrix(.35853088 -.93351787 .93351787 .35853088 8.477785 53.55956)"/><circle cx="50.424" cy="18.692" fill="#131214" r="3.9739" stroke="#131214" stroke-width=".6"/><circle cx="51.57" cy="24.143" fill="#131214" r="6.0627" stroke="#131214" stroke-width=".6"/></g><path d="m40.396 58.405c-4.0673 1.9869-7.4297 3.6512-7.4297 3.6512l-4.6192-4.1352" stroke="#131214" stroke-width=".6"/></g></svg>